<svg id="Layer_1" data-name="Layer 1" xmlns="http://www.w3.org/2000/svg" viewBox="0 0 100.33 20.21"><defs><style>.cls-1{fill:#fff;}</style></defs><title>Swastamita</title><path class="cls-1" d="M14.92,1.49a4.09,4.09,0,0,1-1.65,1.45,4.7,4.7,0,0,1-2.17.59,10.31,10.31,0,0,1-2.89-.6,10.59,10.59,0,0,0-2.39-.6,2.28,2.28,0,0,0-1.73.78A2.62,2.62,0,0,0,3.36,5,2.4,2.4,0,0,0,4,6.74,4.67,4.67,0,0,0,5.68,7.81c.66.26,1.69.58,3.09,1A26.9,26.9,0,0,1,12.14,9.9a5.66,5.66,0,0,1,2.17,1.65,4.4,4.4,0,0,1,.88,2.86A6.37,6.37,0,0,1,13,19.14,7.53,7.53,0,0,1,7.63,21.2a7.5,7.5,0,0,1-4.86-1.54A4.54,4.54,0,0,1,.84,16,3.4,3.4,0,0,1,2,13.38a4.09,4.09,0,0,1,2.91-1.05,4.94,4.94,0,0,1,3.18,1,3,3,0,0,1,1.3,2.45,2,2,0,0,1-.67,1.59A2.27,2.27,0,0,1,7.08,18,2.47,2.47,0,0,1,4.77,16.6l.36-.21A1.68,1.68,0,0,0,6.36,17a1.58,1.58,0,0,0,1.2-.51A1.78,1.78,0,0,0,8,15.19a2,2,0,0,0-.8-1.59A3,3,0,0,0,5.31,13a2.84,2.84,0,0,0-2.19,1,3.37,3.37,0,0,0-.88,2.32A3.84,3.84,0,0,0,3.81,19.3a6,6,0,0,0,3.93,1.27A5.93,5.93,0,0,0,12,19a5,5,0,0,0,1.68-3.73,3.54,3.54,0,0,0-.78-2.38A5,5,0,0,0,11,11.5a27,27,0,0,0-3-1,29.69,29.69,0,0,1-3-1A5,5,0,0,1,3.07,8.17a3.38,3.38,0,0,1-.74-2.26A4.32,4.32,0,0,1,3.84,2.63,5.09,5.09,0,0,1,7.35,1.26,10.74,10.74,0,0,1,10,1.74a10.52,10.52,0,0,0,2.49.47,2.86,2.86,0,0,0,2.17-1Z" transform="translate(-0.84 -1.23)"/><path class="cls-1" d="M23.17,11.76a.92.92,0,0,1,.75-.26,2.93,2.93,0,0,1,2.35,1,4,4,0,0,1,.89,2.71,6.55,6.55,0,0,1-.54,2.57,16.93,16.93,0,0,1-2.16,3.41l-.33-.16A2.67,2.67,0,0,0,24,19.15a5.91,5.91,0,0,0-.74-1.23l-.7-1a8.33,8.33,0,0,1-2.61,4.26l-.33-.16c.05-.4.08-.68.08-.83a5.68,5.68,0,0,0-.29-1.36A13,13,0,0,0,18.6,17c-.59.93-1,1.55-1.21,1.83l-.45-.43a15.14,15.14,0,0,0,2.21-4.26l.3.11a5.1,5.1,0,0,0,.68,2.31,5.57,5.57,0,0,1,.66,2.56v.22h.09A15.18,15.18,0,0,0,22.69,14h.36A3.5,3.5,0,0,0,24,16.34a4.59,4.59,0,0,1,1.26,3,7.74,7.74,0,0,0,1.3-3.91c0-1.63-.66-2.44-2-2.44a4.85,4.85,0,0,0-.92.06A2.38,2.38,0,0,1,23.17,11.76Zm6,6.79a5.2,5.2,0,0,1-4,2.8l-.09-.28a4.53,4.53,0,0,0,1.8-.83,10.71,10.71,0,0,0,1.81-2Z" transform="translate(-0.84 -1.23)"/><path class="cls-1" d="M39.48,18.55q-1.66,2.61-3.27,2.61a1.05,1.05,0,0,1-.86-.32,2.37,2.37,0,0,1-.28-1.35,5.89,5.89,0,0,1-1.49,1.41,2.88,2.88,0,0,1-1.39.33,2.25,2.25,0,0,1-1.79-.77,3.09,3.09,0,0,1-.67-2.09v-.63c-.11.14-.36.49-.75,1.06l-.48-.34a12.78,12.78,0,0,1,2.72-3.13,4.25,4.25,0,0,1,2.5-1.14,2.94,2.94,0,0,1,1.51.46L36.52,14v5a3.41,3.41,0,0,0,.07.95c0,.11.18.16.4.16a1.62,1.62,0,0,0,.83-.5A8.47,8.47,0,0,0,39,18.17ZM35,18.37V15.43a2,2,0,0,0-1.42-.61,2.07,2.07,0,0,0-1.59.83,3,3,0,0,0-.7,2,2.39,2.39,0,0,0,.5,1.63,1.7,1.7,0,0,0,1.37.58,1.63,1.63,0,0,0,1.25-.67C34.84,18.79,35,18.5,35,18.37Z" transform="translate(-0.84 -1.23)"/><path class="cls-1" d="M42.28,13.78a4.54,4.54,0,0,1,1.84,1.72,4.31,4.31,0,0,1,.69,2.27,3.76,3.76,0,0,1-.8,2.38,2.52,2.52,0,0,1-2,1,2.78,2.78,0,0,1-1.34-.41,3.72,3.72,0,0,1-1.24-1.2,3.79,3.79,0,0,1,1.32-1.21l.12.15a2.31,2.31,0,0,0,0,.43A1.64,1.64,0,0,0,41.22,20a1.32,1.32,0,0,0,1,.49A1.34,1.34,0,0,0,43.34,20a2.37,2.37,0,0,0,.44-1.46q0-1.81-2.16-3.24l-1.24,2a16.26,16.26,0,0,1-1.09,1.61l-.45-.37a38.61,38.61,0,0,0,3-5.4l.36,0Zm5,4.77a5.2,5.2,0,0,1-4,2.8l-.09-.28a4.53,4.53,0,0,0,1.8-.83,10.71,10.71,0,0,0,1.81-2Z" transform="translate(-0.84 -1.23)"/><path class="cls-1" d="M53.84,18.51c-1.11,1.77-2.27,2.65-3.51,2.65-.58,0-.95-.14-1.1-.41A3.16,3.16,0,0,1,49,19.41V15.89a29,29,0,0,1-1.92,2.89l-.49-.34.93-1.4c.25-.4.56-.93.93-1.58A5.61,5.61,0,0,0,49,14.37v-6l1.47-1.44V12.5L52.73,9l.58.43-2.83,4.46v4.51a6.57,6.57,0,0,0,.09,1.37.44.44,0,0,0,.48.35c.67,0,1.46-.65,2.38-2Z" transform="translate(-0.84 -1.23)"/><path class="cls-1" d="M64.21,18.55q-1.68,2.61-3.27,2.61a1.08,1.08,0,0,1-.87-.32,2.45,2.45,0,0,1-.28-1.35A5.58,5.58,0,0,1,58.3,20.9a2.82,2.82,0,0,1-1.38.33,2.27,2.27,0,0,1-1.8-.77,3.14,3.14,0,0,1-.67-2.09v-.63c-.1.14-.35.49-.74,1.06l-.49-.34a13,13,0,0,1,2.72-3.13,4.3,4.3,0,0,1,2.5-1.14,2.92,2.92,0,0,1,1.51.46L61.24,14v5a3.25,3.25,0,0,0,.08.95c0,.11.18.16.39.16a1.6,1.6,0,0,0,.84-.5,9,9,0,0,0,1.22-1.42Zm-4.45-.18V15.43a1.91,1.91,0,0,0-1.41-.61,2.07,2.07,0,0,0-1.59.83,3,3,0,0,0-.71,2,2.44,2.44,0,0,0,.5,1.63,1.71,1.71,0,0,0,1.37.58,1.67,1.67,0,0,0,1.26-.67C59.57,18.79,59.76,18.5,59.76,18.37Z" transform="translate(-0.84 -1.23)"/><path class="cls-1" d="M78.61,18.55q-1.73,2.61-3.46,2.61a.93.93,0,0,1-.77-.33,2.92,2.92,0,0,1-.27-1.59V15.82c0-.36-.15-.54-.43-.54a1,1,0,0,0-.53.2,3.26,3.26,0,0,0-.59.59,14.18,14.18,0,0,0-.85,1.3,4.77,4.77,0,0,0-.52,1v2.32l-1.47.72V16.09q0-.66-.45-.66a1.27,1.27,0,0,0-.84.41,6,6,0,0,0-1,1.42,6.09,6.09,0,0,0-.59,1.14v2.32l-1.47.72V16.57A9,9,0,0,1,64,18.83l-.46-.37a10.25,10.25,0,0,0,1.77-3.75L66.8,14v3c1.12-1.9,2.17-2.86,3.15-2.86a1,1,0,0,1,.93.49,5.54,5.54,0,0,1,.31,2.37,9.63,9.63,0,0,1,1.63-2.23,2.24,2.24,0,0,1,1.49-.63c.84,0,1.26.58,1.26,1.72v2.7a4.65,4.65,0,0,0,.1,1.25.37.37,0,0,0,.36.23c.44,0,1.15-.64,2.12-1.92Z" transform="translate(-0.84 -1.23)"/><path class="cls-1" d="M84.23,18.55a8,8,0,0,1-1.72,1.94,2.7,2.7,0,0,1-1.58.67c-.53,0-.87-.14-1-.42a3.77,3.77,0,0,1-.21-1.5V16.57a8.76,8.76,0,0,1-1.32,2.26L78,18.46a10.24,10.24,0,0,0,1.77-3.66L81.19,14v4.65a5.3,5.3,0,0,0,.08,1.14.37.37,0,0,0,.4.28q.66,0,2.13-1.92ZM81.7,11.16l-1,1.3-1-1.3,1-1.26Z" transform="translate(-0.84 -1.23)"/><path class="cls-1" d="M90.8,18.51q-1.67,2.65-3.51,2.65c-.59,0-1-.14-1.1-.41A3,3,0,0,1,86,19.41V15.89a29,29,0,0,1-1.92,2.89l-.49-.34c.36-.54.67-1,.92-1.4s.57-.93.94-1.58A5.61,5.61,0,0,0,86,14.37v-6l1.47-1.44V12.5L89.69,9l.58.43-2.83,4.46v4.51a6.57,6.57,0,0,0,.09,1.37.43.43,0,0,0,.48.35c.66,0,1.46-.65,2.38-2Z" transform="translate(-0.84 -1.23)"/><path class="cls-1" d="M101.16,18.55q-1.66,2.61-3.27,2.61a1.05,1.05,0,0,1-.86-.32,2.37,2.37,0,0,1-.28-1.35,5.73,5.73,0,0,1-1.49,1.41,2.87,2.87,0,0,1-1.38.33,2.26,2.26,0,0,1-1.8-.77,3.09,3.09,0,0,1-.67-2.09v-.63c-.11.14-.36.49-.75,1.06l-.48-.34a13,13,0,0,1,2.72-3.13,4.28,4.28,0,0,1,2.5-1.14,2.92,2.92,0,0,1,1.51.46L98.2,14v5a3.89,3.89,0,0,0,.07.95c0,.11.19.16.4.16s.46-.17.84-.5a9,9,0,0,0,1.21-1.42Zm-4.44-.18V15.43a1.91,1.91,0,0,0-1.41-.61,2.07,2.07,0,0,0-1.59.83,3,3,0,0,0-.71,2,2.44,2.44,0,0,0,.5,1.63,1.7,1.7,0,0,0,1.37.58,1.67,1.67,0,0,0,1.26-.67C96.53,18.79,96.72,18.5,96.72,18.37Z" transform="translate(-0.84 -1.23)"/></svg>